<svg xmlns="http://www.w3.org/2000/svg" xmlns:xlink="http://www.w3.org/1999/xlink" id="Layer_1" x="0px" y="0px" viewBox="0 0 1366 768" style="enable-background:new 0 0 1366 768;" xml:space="preserve"><style type="text/css">	.st0{stroke:url(#SVGID_1_);stroke-width:12;stroke-miterlimit:10;}	.st1{display:none;stroke:url(#SVGID_2_);stroke-width:8;stroke-miterlimit:10;}	.st2{fill:#FFFFFF;}	.st3{fill:none;stroke:url(#SVGID_3_);stroke-width:8;stroke-miterlimit:10;}	.st4{fill:url(#SVGID_4_);}	.st5{fill:url(#SVGID_5_);}	.st6{fill:url(#SVGID_6_);}	.st7{fill:url(#SVGID_7_);}	.st8{fill:url(#SVGID_8_);}	.st9{fill:url(#SVGID_9_);}	.st10{fill:url(#SVGID_10_);}	.st11{fill:url(#SVGID_11_);}	.st12{fill:url(#SVGID_12_);}	.st13{fill:url(#SVGID_13_);}	.st14{fill:url(#SVGID_14_);}	.st15{fill:url(#SVGID_15_);}</style><linearGradient id="SVGID_1_" gradientUnits="userSpaceOnUse" x1="684.9922" y1="29.0059" x2="684.9922" y2="718.3397">	<stop offset="0" style="stop-color:#F6F399"></stop>	<stop offset="0.0207" style="stop-color:#F6F090"></stop>	<stop offset="0.0551" style="stop-color:#F5E976"></stop>	<stop offset="0.0987" style="stop-color:#F4DE4D"></stop>	<stop offset="0.1372" style="stop-color:#F3D223"></stop>	<stop offset="0.2897" style="stop-color:#EEAF1D"></stop>	<stop offset="0.9944" style="stop-color:#E49229"></stop></linearGradient><ellipse class="st0" cx="684.99" cy="373.67" rx="338.78" ry="338.67"></ellipse><linearGradient id="SVGID_2_" gradientUnits="userSpaceOnUse" x1="680.6549" y1="109.2304" x2="680.6549" y2="666.0394">	<stop offset="0" style="stop-color:#FFFF77"></stop>	<stop offset="0.0316" style="stop-color:#FDF66E"></stop>	<stop offset="0.084" style="stop-color:#F9DD54"></stop>	<stop offset="0.1506" style="stop-color:#F3B42B"></stop>	<stop offset="0.1652" style="stop-color:#F1AA21"></stop>	<stop offset="0.5244" style="stop-color:#EE901D"></stop>	<stop offset="0.9944" style="stop-color:#E45929"></stop></linearGradient><ellipse class="st1" cx="680.65" cy="387.63" rx="274.2" ry="274.4"></ellipse><g>	<path class="st2" d="M535.81,98.04l16.44,31.97l-4.04,2.08l-16.44-31.97L535.81,98.04z M548.74,91.39l1.78,3.47l-13.65,7.02  l-1.78-3.47L548.74,91.39z M554.16,105.99l1.77,3.45l-12.01,6.17l-1.77-3.45L554.16,105.99z M563.63,119.8l1.77,3.45l-13.87,7.13  l-1.77-3.45L563.63,119.8z"></path>	<path class="st2" d="M556.91,87.46l3.6-1.38l8.46,20.24l5.02,13.1l-4.22,1.62L556.91,87.46z M558.24,86.94l4.1-1.57l19.26,24.01  l-1.72-30.72l4.1-1.57l1.58,37.89l-3.23,1.24L558.24,86.94z M581.71,77.96l3.6-1.38l12.85,33.57l-4.22,1.62l-5.02-13.1  L581.71,77.96z"></path>	<path class="st2" d="M617.7,95.64c-0.21-0.81-0.49-1.51-0.85-2.09c-0.35-0.58-0.84-1.06-1.45-1.45s-1.41-0.7-2.39-0.94  c-0.98-0.24-2.19-0.42-3.64-0.56c-1.57-0.14-3.01-0.37-4.34-0.7s-2.5-0.79-3.54-1.39c-1.03-0.6-1.91-1.37-2.63-2.3  c-0.72-0.94-1.25-2.08-1.61-3.43c-0.35-1.35-0.44-2.67-0.27-3.93s0.58-2.44,1.23-3.52c0.65-1.08,1.52-2.02,2.62-2.81  c1.1-0.8,2.41-1.39,3.92-1.79c2.26-0.59,4.3-0.59,6.11,0.01c1.81,0.59,3.32,1.58,4.54,2.98c1.21,1.39,2.05,3,2.53,4.81l-4.4,1.14  c-0.34-1.31-0.85-2.41-1.54-3.31c-0.69-0.9-1.54-1.53-2.58-1.88c-1.04-0.35-2.26-0.34-3.68,0.02c-1.27,0.33-2.26,0.85-2.95,1.56  s-1.12,1.53-1.29,2.48c-0.17,0.95-0.12,1.96,0.17,3.04c0.19,0.73,0.49,1.36,0.9,1.9s0.95,0.98,1.61,1.35  c0.67,0.37,1.46,0.67,2.37,0.89c0.92,0.22,1.98,0.39,3.18,0.5c1.85,0.12,3.47,0.36,4.86,0.73c1.39,0.37,2.58,0.88,3.56,1.54  c0.99,0.65,1.8,1.47,2.44,2.45c0.64,0.98,1.13,2.15,1.48,3.5c0.37,1.42,0.47,2.76,0.3,4.03c-0.17,1.27-0.6,2.43-1.28,3.47  c-0.68,1.04-1.59,1.95-2.74,2.71s-2.5,1.35-4.08,1.76c-1.37,0.36-2.77,0.48-4.2,0.38c-1.43-0.1-2.79-0.46-4.09-1.08  c-1.3-0.61-2.44-1.5-3.42-2.65c-0.98-1.15-1.69-2.59-2.15-4.33l4.4-1.14c0.31,1.19,0.75,2.17,1.32,2.93  c0.57,0.76,1.24,1.34,2.01,1.74s1.59,0.62,2.46,0.67s1.77-0.04,2.69-0.28c1.27-0.33,2.29-0.83,3.04-1.5  c0.75-0.67,1.24-1.48,1.46-2.42C618.03,97.8,617.99,96.77,617.7,95.64z"></path>	<path class="st2" d="M655.88,62.14l0.49,3.87l-23.19,2.96l-0.5-3.87L655.88,62.14z M646.5,63.34L651.06,99l-4.46,0.57l-4.56-35.66  L646.5,63.34z"></path>	<path class="st2" d="M663.7,61.6l10.04-0.37c2.33-0.08,4.31,0.25,5.93,1.02c1.62,0.77,2.86,1.93,3.73,3.51  c0.87,1.57,1.35,3.53,1.44,5.86c0.06,1.65-0.16,3.16-0.65,4.53c-0.49,1.38-1.24,2.56-2.24,3.54c-1,0.98-2.23,1.73-3.7,2.25  l-1.21,0.56l-8.95,0.33l-0.19-3.87l6.44-0.23c1.38-0.05,2.52-0.39,3.42-1.03c0.9-0.63,1.56-1.47,1.98-2.51s0.61-2.17,0.57-3.41  c-0.05-1.38-0.3-2.58-0.75-3.6c-0.45-1.02-1.13-1.8-2.05-2.33c-0.92-0.53-2.12-0.77-3.62-0.72l-5.5,0.2l1.17,32.03l-4.54,0.17  L663.7,61.6z M682.26,96.9l-7.75-16.02l4.71-0.2l7.88,15.75l0.01,0.3L682.26,96.9z"></path>	<path class="st2" d="M704.53,64.82l-11.71,32.14l-4.63-0.27l13.65-35.22l2.91,0.17L704.53,64.82z M711.33,84.71l-0.23,3.89  l-17.3-1.01l0.23-3.89L711.33,84.71z M710.56,97.99l-7.9-33.28l0.14-3.18l2.93,0.17l9.47,36.56L710.56,97.99z"></path>	<path class="st2" d="M728.78,64.02l-4.64,35.65l-4.5-0.59l4.64-35.65L728.78,64.02z"></path>	<path class="st2" d="M761.67,70.11l-7.33,35.19l-4.47-0.93l-8.44-30.08l-5.65,27.15l-4.45-0.93l7.32-35.2l4.45,0.93l8.5,30.17  l5.66-27.22L761.67,70.11z"></path>	<path class="st2" d="M775.78,74.16l-9.98,34.54l-4.36-1.26l9.98-34.54L775.78,74.16z"></path>	<path class="st2" d="M807.38,85.17l-12.57,33.68l-4.28-1.6l-3.78-31.01l-9.7,25.98l-4.25-1.59l12.57-33.68l4.25,1.59l3.83,31.1  l9.72-26.05L807.38,85.17z"></path>	<path class="st2" d="M829.27,115.68l-5.99,12c-0.59,0.3-1.42,0.62-2.48,0.97c-1.07,0.35-2.38,0.48-3.93,0.38  c-1.55-0.09-3.37-0.66-5.44-1.7c-1.66-0.83-3.04-1.87-4.14-3.12c-1.1-1.25-1.86-2.68-2.29-4.3c-0.43-1.62-0.5-3.41-0.2-5.37  c0.3-1.96,1.01-4.07,2.14-6.34l3.01-6.03c1.12-2.25,2.34-4.11,3.64-5.58s2.68-2.53,4.15-3.2s3.01-0.94,4.64-0.83  c1.63,0.11,3.34,0.62,5.13,1.51c2.08,1.04,3.65,2.31,4.72,3.82c1.07,1.51,1.64,3.2,1.7,5.07c0.07,1.87-0.36,3.87-1.29,5.98  l-4.06-2.03c0.56-1.38,0.85-2.65,0.86-3.83s-0.27-2.23-0.85-3.16c-0.59-0.93-1.53-1.71-2.82-2.36c-1.24-0.62-2.39-0.93-3.44-0.95  c-1.06-0.01-2.06,0.26-3.01,0.81s-1.86,1.4-2.72,2.53c-0.87,1.13-1.72,2.53-2.55,4.19l-3.03,6.08c-0.85,1.71-1.43,3.28-1.72,4.72  c-0.29,1.44-0.33,2.72-0.12,3.86c0.21,1.14,0.66,2.13,1.34,2.97c0.68,0.85,1.57,1.54,2.68,2.1c1.25,0.62,2.3,0.98,3.16,1.08  c0.85,0.09,1.56,0.07,2.12-0.07c0.56-0.14,1.01-0.26,1.35-0.35l3.7-7.42l-5.9-2.94l1.72-3.45L829.27,115.68z"></path></g><g>	<path class="st2" d="M464.27,566.75l-24.76,21.33l-2.62-3.05l24.76-21.34L464.27,566.75z"></path>	<path class="st2" d="M482.8,586.41l-23.41,22.81l-2.82-2.9l9.17-26.72l-18.06,17.59l-2.81-2.88l23.41-22.81l2.81,2.88l-9.17,26.81  l18.1-17.64L482.8,586.41z"></path>	<path class="st2" d="M502.78,603.95l-21.33,24.77l-3.06-2.64l6.79-27.42l-16.45,19.11l-3.05-2.62l21.33-24.77l3.05,2.62  l-6.79,27.51l16.49-19.16L502.78,603.95z"></path>	<path class="st2" d="M516.26,630.59l-3.32,4.61c-1.35,1.87-2.73,3.37-4.14,4.5c-1.42,1.13-2.84,1.9-4.28,2.3  c-1.44,0.4-2.86,0.46-4.27,0.17c-1.41-0.29-2.78-0.92-4.11-1.88c-1.29-0.93-2.29-2.01-3.02-3.25c-0.72-1.24-1.13-2.61-1.21-4.11  s0.17-3.11,0.77-4.83c0.6-1.72,1.57-3.51,2.92-5.38l3.32-4.61c1.35-1.87,2.73-3.36,4.17-4.48s2.87-1.87,4.33-2.27  c1.45-0.39,2.88-0.45,4.29-0.16c1.41,0.29,2.76,0.89,4.05,1.82c1.34,0.96,2.37,2.07,3.09,3.32c0.72,1.25,1.12,2.62,1.19,4.11  c0.07,1.49-0.21,3.08-0.82,4.79C518.58,626.94,517.6,628.72,516.26,630.59z M509.71,632.88l3.34-4.65c1.05-1.46,1.83-2.8,2.35-4.02  c0.52-1.22,0.79-2.33,0.81-3.33c0.02-1-0.19-1.9-0.63-2.71c-0.44-0.81-1.11-1.53-1.99-2.17c-0.84-0.6-1.71-0.99-2.61-1.14  c-0.9-0.16-1.83-0.07-2.78,0.25c-0.95,0.33-1.94,0.93-2.95,1.79c-1.01,0.87-2.04,2.03-3.09,3.49l-3.34,4.65  c-1.06,1.47-1.84,2.82-2.34,4.06s-0.76,2.36-0.76,3.38c-0.01,1.02,0.21,1.93,0.65,2.74s1.08,1.51,1.91,2.1  c0.89,0.64,1.79,1.04,2.7,1.21c0.91,0.17,1.84,0.08,2.78-0.27s1.9-0.96,2.89-1.85C507.63,635.53,508.65,634.35,509.71,632.88z"></path>	<path class="st2" d="M529.7,623.12l-7.8,27.66l-1.7,4.77l-2.64-1.59l8.39-33.1L529.7,623.12z M521.28,650.41l20.85-19.81l3.74,2.25  l-25.32,22.91l-2.64-1.59L521.28,650.41z"></path>	<path class="st2" d="M555.31,640.8l-21.12,22.74l-3.67-1.84l23.81-24.63l2.3,1.16L555.31,640.8z M553.68,659.77l-1.59,3.17  l-13.71-6.87l1.59-3.17L553.68,659.77z M548.26,670.59l5.57-30.53l1.26-2.61l2.32,1.16l-5.48,33.81L548.26,670.59z"></path>	<path class="st2" d="M576.65,647.27l-12.53,30.19l-3.67-1.52l12.53-30.19L576.65,647.27z M584.38,650.47l-1.36,3.28l-19.12-7.93  l1.36-3.28L584.38,650.47z"></path>	<path class="st2" d="M592.13,653.06l-10.79,30.85l-3.79-1.33l10.79-30.85L592.13,653.06z"></path>	<path class="st2" d="M599.79,655.65l-0.27,28.74l-0.39,5.05l-2.96-0.84l-0.58-34.14L599.79,655.65z M598.83,684.19l14.92-24.58  l4.21,1.19l-18.42,28.75l-2.96-0.84L598.83,684.19z"></path>	<path class="st2" d="M625.15,662.21l-6.42,32.05l-3.94-0.79l6.42-32.05L625.15,662.21z M632.26,693.38l-0.69,3.46l-13.54-2.71  l0.69-3.46L632.26,693.38z M633.41,678.2l-0.69,3.46l-11.72-2.35l0.69-3.46L633.41,678.2z M637.77,664.74l-0.7,3.48l-13.33-2.67  l0.7-3.48L637.77,664.74z"></path>	<path class="st2" d="M653.72,667.03l2.4,22.58l0.45,10.38l-2.81-0.2l-4.04-33.05L653.72,667.03z M657.14,690.13l6.67-22.4l2.86,0.2  l-2.12,8.74l-7.18,23.37l-2.86-0.2L657.14,690.13z M667.12,667.97l3.33,23.1l1.21,9.99l-2.86-0.2l-3.61-24.13l-0.88-8.95  L667.12,667.97z M671.58,690.67l5.44-22.01l3.99,0.28l-8.58,32.16l-2.81-0.2L671.58,690.67z"></path>	<path class="st2" d="M688.88,668.53l0.15,32.69l-4.02,0.02l-0.15-32.69L688.88,668.53z"></path>	<path class="st2" d="M695.11,668.52l8.88-0.56c2.06-0.13,3.82,0.13,5.27,0.79c1.45,0.66,2.58,1.69,3.39,3.11  c0.81,1.41,1.28,3.18,1.42,5.3c0.09,1.49-0.06,2.87-0.46,4.13c-0.4,1.26-1.03,2.35-1.9,3.27c-0.86,0.92-1.93,1.62-3.22,2.12  l-1.06,0.54l-7.92,0.5l-0.26-3.51l5.69-0.36c1.22-0.08,2.22-0.41,3-1.01c0.78-0.6,1.34-1.37,1.69-2.32  c0.35-0.95,0.49-1.99,0.42-3.11c-0.08-1.25-0.33-2.34-0.75-3.26c-0.42-0.92-1.04-1.61-1.87-2.08c-0.83-0.47-1.9-0.66-3.22-0.58  l-4.86,0.3l1.82,29.08l-4.01,0.25L695.11,668.52z M712.4,700.19l-7.25-14.39l4.16-0.28l7.37,14.14l0.02,0.27L712.4,700.19z"></path>	<path class="st2" d="M721.77,666.32l4.45,32.38l-3.98,0.55l-4.45-32.38L721.77,666.32z M734.52,664.57l0.48,3.51l-13.47,1.85  l-0.48-3.51L734.52,664.57z M734.82,678.71l0.48,3.49l-11.84,1.63l-0.48-3.49L734.82,678.71z M738.71,693.43l0.48,3.49l-13.68,1.88  l-0.48-3.49L738.71,693.43z"></path>	<path class="st2" d="M742.8,662.91l6.77,31.98l-3.93,0.83l-6.77-31.98L742.8,662.91z M761.05,688.85l0.73,3.45l-12.91,2.74  l-0.73-3.45L761.05,688.85z"></path>	<path class="st2" d="M762.62,658.21l9.07,31.4l-3.86,1.12l-9.07-31.4L762.62,658.21z M774.98,654.64l0.98,3.41l-13.06,3.77  l-0.98-3.41L774.98,654.64z M777.31,668.59l0.98,3.39l-11.48,3.32l-0.98-3.39L777.31,668.59z M783.29,682.59l0.98,3.39l-13.27,3.83  l-0.98-3.39L783.29,682.59z"></path>	<path class="st2" d="M800.7,671.25c-0.27-0.71-0.59-1.32-0.96-1.81c-0.37-0.49-0.84-0.89-1.42-1.18c-0.58-0.3-1.31-0.51-2.2-0.64  s-1.98-0.2-3.27-0.2c-1.4,0.01-2.7-0.08-3.9-0.26c-1.2-0.18-2.29-0.5-3.26-0.95c-0.97-0.45-1.82-1.07-2.54-1.85  c-0.73-0.78-1.31-1.77-1.76-2.96s-0.65-2.37-0.63-3.53c0.03-1.16,0.27-2.25,0.74-3.28c0.46-1.03,1.14-1.95,2.04-2.76  s1.99-1.46,3.29-1.94c1.94-0.72,3.74-0.89,5.39-0.51c1.66,0.38,3.09,1.15,4.3,2.3c1.21,1.15,2.11,2.53,2.71,4.13l-3.77,1.4  c-0.43-1.15-0.99-2.1-1.68-2.86c-0.69-0.75-1.52-1.25-2.46-1.48c-0.95-0.23-2.03-0.12-3.24,0.33c-1.09,0.41-1.91,0.96-2.45,1.66  c-0.54,0.7-0.84,1.48-0.9,2.35c-0.06,0.87,0.09,1.78,0.45,2.73c0.24,0.64,0.57,1.19,0.98,1.63c0.41,0.44,0.93,0.81,1.56,1.08  c0.62,0.28,1.35,0.48,2.18,0.6c0.83,0.12,1.78,0.18,2.85,0.18c1.64-0.05,3.1,0.03,4.36,0.24c1.26,0.22,2.36,0.58,3.29,1.08  c0.93,0.51,1.73,1.17,2.39,2.01c0.66,0.83,1.21,1.84,1.66,3.04c0.47,1.25,0.68,2.45,0.66,3.61c-0.03,1.16-0.29,2.24-0.79,3.24  c-0.5,1-1.21,1.89-2.15,2.68c-0.94,0.79-2.08,1.43-3.43,1.94c-1.17,0.44-2.4,0.67-3.67,0.7c-1.27,0.03-2.51-0.18-3.72-0.62  c-1.21-0.44-2.3-1.14-3.28-2.1c-0.98-0.95-1.75-2.19-2.32-3.72l3.77-1.4c0.39,1.05,0.88,1.9,1.46,2.54c0.58,0.64,1.23,1.1,1.94,1.4  c0.71,0.29,1.46,0.42,2.24,0.4c0.78-0.03,1.56-0.19,2.35-0.48c1.09-0.41,1.94-0.95,2.53-1.62c0.6-0.67,0.95-1.44,1.05-2.31  C801.21,673.18,801.07,672.25,800.7,671.25z"></path>	<path class="st2" d="M822.74,661.58c-0.32-0.69-0.68-1.27-1.09-1.73c-0.41-0.46-0.91-0.82-1.51-1.07c-0.6-0.25-1.35-0.41-2.24-0.47  c-0.9-0.06-1.99-0.05-3.27,0.06c-1.39,0.12-2.69,0.13-3.91,0.04c-1.21-0.09-2.32-0.32-3.32-0.7c-1-0.38-1.9-0.93-2.68-1.65  c-0.79-0.73-1.45-1.67-1.98-2.82s-0.83-2.31-0.9-3.47c-0.06-1.16,0.1-2.27,0.48-3.33c0.38-1.06,0.99-2.03,1.82-2.91  c0.83-0.88,1.87-1.61,3.13-2.19c1.88-0.87,3.66-1.18,5.34-0.92c1.68,0.25,3.17,0.91,4.46,1.97c1.29,1.06,2.3,2.36,3.02,3.91  l-3.65,1.69c-0.52-1.11-1.15-2.02-1.9-2.72c-0.75-0.7-1.61-1.13-2.57-1.28c-0.96-0.16-2.03,0.04-3.21,0.58  c-1.06,0.49-1.83,1.1-2.32,1.84s-0.72,1.54-0.71,2.41c0.01,0.87,0.23,1.77,0.65,2.69c0.29,0.62,0.66,1.14,1.1,1.55  s0.99,0.73,1.64,0.96c0.64,0.23,1.39,0.37,2.22,0.43c0.84,0.06,1.79,0.05,2.86-0.04c1.63-0.18,3.09-0.21,4.36-0.09  c1.28,0.12,2.4,0.4,3.37,0.83c0.97,0.43,1.82,1.04,2.54,1.82c0.72,0.78,1.35,1.75,1.88,2.9c0.56,1.21,0.87,2.39,0.93,3.55  c0.06,1.16-0.12,2.25-0.53,3.29c-0.42,1.04-1.07,1.98-1.94,2.84c-0.87,0.86-1.96,1.59-3.27,2.19c-1.14,0.53-2.34,0.85-3.61,0.98  c-1.27,0.12-2.52,0.01-3.76-0.34c-1.24-0.35-2.38-0.96-3.43-1.84c-1.05-0.88-1.91-2.05-2.6-3.53l3.65-1.69  c0.47,1.02,1.02,1.82,1.65,2.42c0.63,0.59,1.31,1.01,2.04,1.24c0.74,0.24,1.49,0.31,2.26,0.23c0.77-0.09,1.54-0.3,2.31-0.66  c1.06-0.49,1.86-1.09,2.4-1.8c0.55-0.71,0.83-1.51,0.87-2.38C823.39,663.47,823.19,662.55,822.74,661.58z"></path>	<path class="st2" d="M853.1,644.72c-0.4-0.65-0.82-1.19-1.28-1.6c-0.46-0.42-0.99-0.71-1.62-0.9c-0.62-0.18-1.38-0.26-2.28-0.22  c-0.9,0.04-1.98,0.17-3.25,0.42c-1.37,0.27-2.66,0.42-3.88,0.47s-2.34-0.07-3.38-0.33s-1.99-0.71-2.85-1.35  c-0.86-0.64-1.62-1.5-2.28-2.58c-0.66-1.09-1.08-2.21-1.27-3.35c-0.19-1.14-0.15-2.26,0.11-3.36c0.27-1.1,0.76-2.13,1.49-3.09  c0.73-0.96,1.68-1.8,2.87-2.52c1.77-1.07,3.51-1.57,5.21-1.51c1.7,0.07,3.25,0.55,4.65,1.46c1.4,0.91,2.54,2.1,3.42,3.56  l-3.44,2.08c-0.64-1.05-1.36-1.88-2.19-2.5c-0.82-0.61-1.72-0.95-2.7-0.99c-0.97-0.05-2.02,0.26-3.13,0.93c-1,0.6-1.7,1.3-2.1,2.08  c-0.4,0.79-0.55,1.61-0.45,2.47c0.11,0.86,0.42,1.73,0.95,2.6c0.36,0.59,0.78,1.06,1.27,1.42c0.49,0.36,1.07,0.62,1.73,0.78  c0.67,0.16,1.42,0.22,2.26,0.18c0.84-0.03,1.78-0.15,2.84-0.35c1.61-0.36,3.05-0.55,4.33-0.57c1.28-0.02,2.43,0.13,3.44,0.45  c1.01,0.32,1.92,0.83,2.72,1.53c0.8,0.7,1.53,1.59,2.19,2.68c0.69,1.14,1.13,2.28,1.32,3.43c0.19,1.15,0.13,2.25-0.17,3.33  c-0.3,1.07-0.84,2.09-1.61,3.03c-0.77,0.95-1.78,1.79-3.01,2.54c-1.07,0.65-2.23,1.1-3.48,1.37s-2.5,0.29-3.77,0.08  c-1.27-0.21-2.47-0.7-3.61-1.45c-1.14-0.75-2.13-1.83-2.97-3.23l3.44-2.08c0.58,0.96,1.21,1.7,1.9,2.22  c0.69,0.52,1.41,0.86,2.17,1.01c0.76,0.16,1.51,0.15,2.27-0.02c0.76-0.17,1.5-0.47,2.22-0.91c1-0.6,1.73-1.29,2.19-2.06  s0.66-1.59,0.61-2.46C853.95,646.53,853.65,645.63,853.1,644.72z"></path>	<path class="st2" d="M848.93,618.29l14.81,9.59l-4.23-17.14l3.7-2.64l4.52,21.92l7.09,9.94l-3.27,2.34l-7.09-9.94l-19.25-11.42  L848.93,618.29z"></path>	<path class="st2" d="M891.72,616.17c-0.49-0.59-0.99-1.05-1.5-1.39c-0.51-0.34-1.09-0.56-1.73-0.65c-0.64-0.09-1.4-0.05-2.29,0.12  c-0.88,0.17-1.93,0.47-3.15,0.9c-1.31,0.47-2.57,0.82-3.77,1.04c-1.19,0.22-2.33,0.28-3.39,0.18s-2.07-0.41-3.02-0.91  c-0.94-0.5-1.82-1.24-2.64-2.22c-0.81-0.98-1.4-2.02-1.76-3.12c-0.36-1.1-0.49-2.22-0.39-3.34c0.1-1.12,0.43-2.21,1.01-3.28  c0.58-1.06,1.4-2.04,2.46-2.92c1.59-1.32,3.23-2.08,4.92-2.27c1.69-0.19,3.3,0.06,4.82,0.75c1.52,0.69,2.83,1.69,3.92,3.01  l-3.09,2.57c-0.79-0.94-1.63-1.66-2.53-2.14c-0.9-0.48-1.84-0.68-2.81-0.58c-0.97,0.1-1.95,0.56-2.95,1.39  c-0.9,0.74-1.49,1.54-1.76,2.37c-0.28,0.84-0.3,1.67-0.07,2.51c0.23,0.84,0.67,1.65,1.32,2.43c0.44,0.53,0.93,0.94,1.47,1.22  c0.54,0.28,1.15,0.45,1.83,0.51c0.68,0.06,1.43,0,2.26-0.16c0.82-0.16,1.74-0.42,2.75-0.77c1.53-0.59,2.93-1,4.19-1.21  s2.42-0.24,3.47-0.07c1.05,0.17,2.02,0.54,2.92,1.1c0.9,0.57,1.75,1.34,2.57,2.32c0.85,1.02,1.46,2.09,1.82,3.19  c0.36,1.1,0.47,2.21,0.33,3.32c-0.14,1.11-0.52,2.19-1.14,3.24c-0.62,1.05-1.49,2.04-2.6,2.96c-0.96,0.8-2.04,1.42-3.23,1.87  c-1.19,0.45-2.43,0.66-3.72,0.64c-1.29-0.02-2.55-0.32-3.79-0.9c-1.24-0.58-2.38-1.49-3.42-2.75l3.09-2.57  c0.72,0.86,1.46,1.5,2.21,1.91c0.76,0.41,1.52,0.64,2.29,0.67c0.77,0.04,1.52-0.08,2.24-0.36s1.41-0.69,2.06-1.23  c0.9-0.75,1.51-1.53,1.86-2.36c0.34-0.83,0.42-1.67,0.23-2.53C892.83,617.82,892.4,616.98,891.72,616.17z"></path>	<path class="st2" d="M895.75,578.97l2.46,2.55l-14.89,14.38l-2.46-2.55L895.75,578.97z M889.73,584.78l22.71,23.51l-2.86,2.76  l-22.71-23.51L889.73,584.78z"></path>	<path class="st2" d="M900.97,573.2l24.34,21.81l-2.68,2.99l-24.34-21.81L900.97,573.2z M909.56,563.62l2.64,2.37l-9.07,10.12  l-2.64-2.37L909.56,563.62z M918.93,574.21l2.62,2.35l-7.98,8.9l-2.62-2.35L918.93,574.21z M931.42,582.91l2.62,2.35l-9.22,10.29  l-2.62-2.35L931.42,582.91z"></path>	<path class="st2" d="M912.39,560.46l2.04-2.73l16.31,11.47l10.21,7.64l-2.39,3.2L912.39,560.46z M913.15,559.44l2.33-3.11  l26.32,9.3l-16.36-22.61l2.33-3.11l19.77,28.14l-1.83,2.45L913.15,559.44z M926.47,541.63l2.04-2.73l26.17,19.58l-2.4,3.2  l-10.21-7.64L926.47,541.63z"></path></g><path d="M466.48,550.08c0.68,0.66,1.09,1.53,1.3,2.46c0.22,0.33,0.39,0.69,0.52,1.06c0.25,0.24,0.47,0.52,0.66,0.81 c1.23,0.62,2.02,1.74,2.36,3c2.19,0.42,3.41,2.14,3.7,4.04c1.01,0.54,1.71,1.42,2.1,2.44l18.15,19.26c0.68,0.4,1.21,0.97,1.59,1.62 c1.98,0.25,3.24,1.51,3.79,3.06c0.9,0.57,1.53,1.42,1.88,2.4c1.36,0.18,2.38,0.85,3.06,1.77c1.66,0.34,2.77,1.43,3.32,2.77 c1.15,0.44,1.97,1.28,2.45,2.3c0.61,0.34,1.11,0.81,1.49,1.36c0.42,0.23,0.81,0.51,1.12,0.85c1.47,0.26,2.53,1.09,3.16,2.19 c1.01,0.31,1.79,0.91,2.33,1.68c1.21,0.36,2.09,1.14,2.63,2.11c0.32,0.11,0.63,0.24,0.93,0.4c1.24,0.66,2.03,1.64,2.9,2.62h313.53 l30.23-23.83l20.5-23.17l7.68-11.18H466.48z"></path><linearGradient id="SVGID_3_" gradientUnits="userSpaceOnUse" x1="684.9922" y1="104.2322" x2="684.9922" y2="661.0412">	<stop offset="0" style="stop-color:#FFFF77"></stop>	<stop offset="0.0316" style="stop-color:#FDF66E"></stop>	<stop offset="0.084" style="stop-color:#F9DD54"></stop>	<stop offset="0.1506" style="stop-color:#F3B42B"></stop>	<stop offset="0.1652" style="stop-color:#F1AA21"></stop>	<stop offset="0.5244" style="stop-color:#EE901D"></stop>	<stop offset="0.9944" style="stop-color:#E45929"></stop></linearGradient><ellipse class="st3" cx="684.99" cy="382.64" rx="274.2" ry="274.4"></ellipse><g>	<path class="st2" d="M516.99,521.73c4.32,1.46,7.68,4.15,10.01,8.12c1.58,2.85,2.37,6.21,2.37,10.03c0,9.91-5.01,16.64-15.02,20.18  c-2.85,0.88-5.86,1.33-9.05,1.33c-5.52-0.03-9.29-0.03-11.31-0.03c-0.41,0-1.51,0-3.33,0.03l-0.03-0.09v-0.03  c1.37-1.03,2.06-2.15,2.06-3.36V533.7c0-2.42,0-5.64,0.03-9.67c0-1.33-0.62-2.27-1.89-2.91c-0.14-0.15-0.21-0.27-0.21-0.33  c0.07,0,0.1-0.03,0.1-0.09c0.93-0.03,1.54-0.03,1.78-0.03c3.02,0,7.71-0.03,14.09-0.06C511.88,520.6,515.35,521,516.99,521.73z   M500.6,554.76c0,1.33,1.1,2.27,3.26,2.85c1.2,0.36,2.33,0.55,3.39,0.55h0.51c3.19,0,6.07-1.06,8.67-3.21  c2.13-2.18,3.57-4.91,4.29-8.18c0.41-1.88,0.65-3.7,0.65-5.42v-1c0-4.64-1.2-8.54-3.63-11.76c-1.82-2.24-4.49-3.88-7.99-4.85  c-1.51-0.39-2.98-0.58-4.42-0.58h-0.38c-1.47,0-2.91,0.15-4.29,0.48v6.73C500.67,536.09,500.64,544.21,500.6,554.76z"></path>	<path class="st2" d="M544.52,520.6c6.24,0,11.07,1.55,14.47,4.61c1.99,1.94,2.98,4.18,2.98,6.67v0.09c0,3.42-1.71,6.39-5.11,8.88  c-1.75,1.06-3.39,1.88-4.87,2.39c-1.37,0.46-2.06,0.67-2.13,0.67c3.36,3.79,7.41,8.12,12.21,13c1.85,1.85,3.36,3.3,4.56,4.39v0.03  h-12.65l-0.1-0.03c0.14-0.21,0.21-0.46,0.21-0.7v-0.24c0-1-0.79-2.49-2.3-4.46c-1.92-2.67-4.9-6.21-8.98-10.64  c-1.71,0.21-3.02,0.3-3.98,0.3v0.79c0,3.54,0,8.54,0.03,14.94c-2.57,0.79-5.25,2-7.92,3.67c-0.65,0.36-1.2,0.73-1.61,1.03h-0.1  v-0.06c1.06-2,1.61-5.03,1.61-9.03c0-6.18,0-17.15,0.03-32.91c0-0.51-0.48-1.15-1.44-1.94v-0.03c0-0.12,1.89-0.39,5.66-0.85  c3.26-0.39,6.03-0.58,8.26-0.58H544.52z M538.86,542.73c1.75,0,4.08-0.3,6.99-0.97c3.19-0.91,5.49-2.42,6.89-4.49  c1.03-1.48,1.51-3.06,1.51-4.64v-0.36c0-2.94-1.47-5.36-4.42-7.27c-1.65-0.94-3.7-1.42-6.14-1.42c-1.34,0-2.95,0.18-4.83,0.52  V542.73z"></path>	<path class="st2" d="M588.47,520.67c0.14,0,0.51,1,1.06,2.97c4.39,13.3,7.68,23.42,9.84,30.36c1.37,3.82,2.43,6,3.26,6.55  c0.58,0.49,0.96,0.73,1.13,0.73v0.09h-12.03v-0.06c0.62-0.64,0.93-1.33,0.93-2.15c0-1.46-0.69-4.09-2.06-7.88h-16.8  c-2.02,4.85-3.02,7.58-3.02,8.21v0.36c0,0.49,0.24,0.97,0.72,1.46v0.06h-8.33v-0.06c1.2-0.73,2.16-2.06,2.95-4  c0.82-1.82,2.3-5.36,4.39-10.67c5.69-13.61,8.57-20.61,8.57-21.03c0.07-0.24,0.14-0.58,0.14-0.97v-0.24c0-0.82-0.69-1.61-2.06-2.36  V522c0-0.12,0.86-0.21,2.54-0.33c5.52-0.67,8.43-1,8.71-1H588.47z M574.86,548.73h14.91c-3.77-11.58-5.9-18.21-6.41-19.88h-0.07  L574.86,548.73z"></path>	<path class="st2" d="M624.67,520.73c5.04,0,8.81,1.18,11.25,3.55c-0.58,0.67-2.33,2.3-5.31,4.88c-3.84-2.97-7.75-4.46-11.76-4.46  c-2.91,0-5.69,0.79-8.33,2.33c-1.34,0.97-2.33,1.91-2.95,2.79c-1.68,2.64-2.54,5.61-2.54,8.88c0,4.82,1.61,9.09,4.83,12.79  c1.51,1.42,2.71,2.39,3.6,2.88c3.26,1.85,6.65,2.76,10.15,2.76h0.58c0.03,0,0.03,0.03,0.03,0.06c0.07-0.03,0.14-0.06,0.17-0.06  c0.99,0,2.26-0.15,3.84-0.46c0.03-1.36,0.07-5.21,0.14-11.52c-1.54,0.12-3.12,0.61-4.77,1.46c-0.99,0.61-1.85,1.18-2.64,1.79v-0.06  l3.84-7.39c3.94,0.03,6.79,0.03,8.54,0.03h3.94v0.09c-1.65,0.79-2.47,1.85-2.47,3.18c0,1.15-0.03,4.42-0.1,9.88l1.99-1.09v0.06  c-0.51,0.82-1.68,2.03-3.5,3.61c-4.18,3.06-9.19,4.61-14.95,4.61c-0.17-0.03-0.34-0.03-0.51-0.03h-0.34  c-4.08,0-7.68-0.94-10.8-2.76c-1.61-1.03-3.02-2.3-4.18-3.85c-0.93-1.27-1.68-2.67-2.26-4.12c-0.86-2.58-1.3-4.94-1.3-7.06v-1  c0-4.94,1.78-9.64,5.35-14.03c1.51-1.67,3.02-2.97,4.46-3.88c3.91-2.55,9.02-3.85,15.4-3.85H624.67z"></path>	<path class="st2" d="M661.59,520.63c4.66,0,8.88,1.21,12.72,3.7c1.92,1.45,3.19,2.61,3.77,3.45c2.64,3.36,3.98,7.27,3.98,11.7v1.03  c0,4.97-1.65,9.39-4.97,13.3c-1.68,1.73-3.15,2.97-4.39,3.7c-4.25,2.55-8.64,3.79-13.13,3.79h-0.55c-0.07,0-0.14,0.03-0.21,0.06  c-0.03-0.03-0.1-0.06-0.17-0.06h-0.1c-4.83,0-9.29-1.36-13.41-4.09c-5.11-3.7-7.65-8.88-7.65-15.55c0-6.33,2.37-11.58,7.06-15.76  c4.39-3.51,9.7-5.27,15.98-5.27H661.59z M649.97,553.27c3.12,3.12,6.82,4.7,11.04,4.7c6.41,0,10.63-3.42,12.62-10.21  c0.51-2.03,0.75-3.97,0.75-5.82c0-5-1.44-9.42-4.29-13.27c-2.85-3.36-6.38-5.06-10.63-5.06c-3.77,0-7.03,1.15-9.84,3.49  c-3.33,3.12-4.97,7.21-4.97,12.21C644.66,544.58,646.4,549.24,649.97,553.27z"></path>	<path class="st2" d="M688.78,520.7c2.61,0,4.35-0.03,5.31-0.03c11.62,15.15,19.82,25.79,24.58,31.94v-0.03  c0.07-4.7,0.14-9.73,0.17-15.03c-0.03-4.36-0.07-8.45-0.07-12.21c0-2.09-0.21-3.3-0.62-3.64c-0.21-0.24-0.62-0.58-1.23-1v-0.03  h8.67v0.09c-1.34,0.61-1.99,1.7-1.99,3.21c0,5.85-0.07,14.97-0.21,27.3v1.48c0,4.46,0.24,7,0.75,7.61  c0.48,0.61,0.86,0.91,1.17,0.91v0.09h-4.18c-1.27,0-3.02-0.03-5.25-0.06c0-0.39-4.63-6.42-13.85-18.06  c-3.6-4.45-7.27-9.12-11.04-14v7.24c0,2.27-0.03,7.27-0.07,15c0,4.48,0.17,7.3,0.58,8.46c0.24,0.64,0.65,1.06,1.2,1.3  c0.07,0,0.1,0.03,0.14,0.03v0.09h-8.33c-0.21,0-0.51-0.03-0.96-0.06v-0.06c0.99-0.33,1.61-0.79,1.85-1.36  c0.51-0.7,0.79-2.97,0.79-6.76c0.1-4.15,0.14-7.91,0.17-11.21c0-1.39-0.07-7.52-0.24-18.39c0-0.79-0.62-1.73-1.85-2.82l0.1-0.03  C685.21,520.67,686.68,520.7,688.78,520.7z"></path>	<path class="st2" d="M767.35,521.67c1.23,0.24,2.61,1.06,4.12,2.46c1.3,1.48,1.92,3.12,1.92,4.94c0,2.82-1.3,5.39-3.98,7.76  c-1.75,1.24-3.29,2-4.63,2.24c0,0.03,0.89,0.27,2.74,0.67c1.68,0.48,3.22,1.27,4.7,2.36c1.03,0.85,1.71,1.58,2.09,2.21  c1.06,1.67,1.58,3.3,1.58,4.94v0.39c0,2.91-1.65,5.64-4.94,8.18c-3.46,2.36-7.51,3.55-12.17,3.55h-17.59c-0.24,0-0.55,0-0.93,0.03  c-0.07-0.03-0.1-0.03-0.14-0.03v-0.15c1.23-0.91,1.85-1.64,1.85-2.15c0.14-0.36,0.21-1.09,0.21-2.09v-28.76  c0-0.79,0-1.94,0.03-3.52c0-1.73-0.58-2.88-1.75-3.48c-0.24-0.15-0.34-0.27-0.34-0.42c0-0.09,0.31-0.12,0.89-0.12  c3.39,0,8.47-0.03,15.19-0.06C762.28,520.6,765.98,520.97,767.35,521.67z M750.11,548.33c0,1.24,0,2.48-0.03,3.82  c0.03,0.21,0.03,1.06,0.03,2.51c0,1.33,0.93,2.24,2.78,2.76c1.54,0.58,3.26,0.88,5.07,0.88h0.24c3.36,0,5.97-1.06,7.89-3.18  c1.3-1.76,1.96-3.55,1.96-5.3c0-3.15-2.19-5.49-6.62-7.03c-1.92-0.55-3.98-0.82-6.21-0.82c-2.5,0.06-4.22,0.09-5.11,0.09V548.33z   M750.11,539.48h0.07c2.74,0,5.76-0.51,8.95-1.51c1.1-0.39,2.19-0.97,3.26-1.67c1.99-1.58,2.98-3.33,2.98-5.27v-0.33  c0-2.27-1.2-4.21-3.57-5.82c-1.96-1.21-4.32-1.82-7.06-1.82c-1.2,0.03-2.74,0.18-4.63,0.51V539.48z"></path>	<path class="st2" d="M801.33,520.63c4.66,0,8.88,1.21,12.72,3.7c1.92,1.45,3.19,2.61,3.77,3.45c2.64,3.36,3.98,7.27,3.98,11.7v1.03  c0,4.97-1.65,9.39-4.97,13.3c-1.68,1.73-3.15,2.97-4.39,3.7c-4.25,2.55-8.64,3.79-13.13,3.79h-0.55c-0.07,0-0.14,0.03-0.21,0.06  c-0.03-0.03-0.1-0.06-0.17-0.06h-0.1c-4.83,0-9.29-1.36-13.41-4.09c-5.11-3.7-7.65-8.88-7.65-15.55c0-6.33,2.37-11.58,7.06-15.76  c4.39-3.51,9.7-5.27,15.98-5.27H801.33z M789.7,553.27c3.12,3.12,6.82,4.7,11.04,4.7c6.41,0,10.63-3.42,12.62-10.21  c0.51-2.03,0.75-3.97,0.75-5.82c0-5-1.44-9.42-4.29-13.27c-2.85-3.36-6.38-5.06-10.63-5.06c-3.77,0-7.03,1.15-9.84,3.49  c-3.33,3.12-4.97,7.21-4.97,12.21C784.39,544.58,786.14,549.24,789.7,553.27z"></path>	<path class="st2" d="M849.6,521.73c4.32,1.46,7.68,4.15,10.01,8.12c1.58,2.85,2.37,6.21,2.37,10.03c0,9.91-5.01,16.64-15.02,20.18  c-2.85,0.88-5.86,1.33-9.05,1.33c-5.52-0.03-9.29-0.03-11.31-0.03c-0.41,0-1.51,0-3.33,0.03l-0.04-0.09v-0.03  c1.37-1.03,2.06-2.15,2.06-3.36V533.7c0-2.42,0-5.64,0.03-9.67c0-1.33-0.62-2.27-1.89-2.91c-0.14-0.15-0.21-0.27-0.21-0.33  c0.07,0,0.1-0.03,0.1-0.09c0.93-0.03,1.54-0.03,1.78-0.03c3.02,0,7.71-0.03,14.09-0.06C844.49,520.6,847.95,521,849.6,521.73z   M833.21,554.76c0,1.33,1.1,2.27,3.26,2.85c1.2,0.36,2.33,0.55,3.39,0.55h0.51c3.19,0,6.07-1.06,8.67-3.21  c2.13-2.18,3.57-4.91,4.29-8.18c0.41-1.88,0.65-3.7,0.65-5.42v-1c0-4.64-1.2-8.54-3.63-11.76c-1.82-2.24-4.49-3.88-7.99-4.85  c-1.51-0.39-2.98-0.58-4.42-0.58h-0.38c-1.47,0-2.91,0.15-4.29,0.48v6.73C833.28,536.09,833.24,544.21,833.21,554.76z"></path>	<path class="st2" d="M867.59,520.57v0.09c-0.27,0-0.55,0.24-0.89,0.76l-0.04,0.3c0.31,0.76,1.68,3.12,4.08,7.12  c3.46,5.58,5.21,8.39,5.21,8.42h0.1c1.89-3.18,4.25-7.61,7.1-13.3c0.82-1.45,1.23-2.24,1.23-2.42v-0.21c0-0.21-0.21-0.46-0.65-0.73  v-0.03H892v0.09c-0.96,0.24-1.65,0.64-2.02,1.15c-2.13,3.12-5.62,9.18-10.53,18.21c-0.58,0.85-0.86,1.36-0.86,1.52v19.58  c0,0.09-0.48,0.24-1.41,0.51c-2.26,0.88-4.59,2.06-7.03,3.58l-0.96,0.7c0-0.03-0.04-0.03-0.07-0.03c0.99-2.15,1.47-4.24,1.47-6.3  c0.1-0.67,0.14-2.03,0.14-4.12v-2.67c0-2.67,0.04-6.42,0.04-11.3c-1.47-1.97-3.39-4.88-5.69-8.76c-2.95-4.91-4.97-8.12-6.03-9.61  c-0.89-1.12-1.61-1.82-2.23-2.09c-0.62-0.24-0.99-0.36-1.13-0.36v-0.09H867.59z"></path></g><g>	<g>		<g>			<path class="st2" d="M650.08,604.58c-0.83,0-1.24,0-2.07,0c0-8.39,0-12.58,0-20.97c0.83,0,1.24,0,2.07,0    C650.08,591.99,650.08,596.19,650.08,604.58z M650.11,578.32c-0.83,0-1.24,0-2.07,0c0-1.35,0-2.03,0-3.38c0.83,0,1.24,0,2.07,0    C650.11,576.29,650.11,576.97,650.11,578.32z"></path>			<path class="st2" d="M658.78,586.71c0.67-0.83,1.33-1.49,1.98-1.98c0.65-0.49,1.28-0.86,1.89-1.11c0.61-0.25,1.19-0.41,1.75-0.47    c0.55-0.06,1.07-0.09,1.55-0.09c4.12,0,6.18,2.54,6.18,7.63c0,5.55,0,8.33,0,13.88c-0.83,0-1.24,0-2.07,0c0-5.48,0-8.22,0-13.69    c0-0.97-0.08-1.82-0.25-2.53c-0.16-0.71-0.43-1.3-0.8-1.76c-0.37-0.46-0.85-0.8-1.45-1.03c-0.6-0.23-1.32-0.34-2.19-0.34    c-1.14,0-2.26,0.35-3.35,1.06c-1.1,0.7-2.18,1.7-3.25,2.98c0,6.13,0,9.19,0,15.32c-0.83,0-1.24,0-2.07,0c0-8.39,0-12.58,0-20.97    c0.83,0,1.24,0,2.07,0C658.78,584.85,658.78,585.47,658.78,586.71z"></path>			<path class="st2" d="M680.77,586.71c0.67-0.83,1.33-1.49,1.98-1.98c0.65-0.49,1.28-0.86,1.89-1.11s1.19-0.41,1.75-0.47    c0.55-0.06,1.07-0.09,1.55-0.09c4.12,0,6.18,2.54,6.18,7.63c0,5.55,0,8.33,0,13.88c-0.83,0-1.24,0-2.07,0c0-5.48,0-8.22,0-13.69    c0-0.97-0.08-1.82-0.25-2.53c-0.16-0.71-0.43-1.3-0.8-1.76c-0.37-0.46-0.85-0.8-1.45-1.03c-0.6-0.23-1.32-0.34-2.19-0.34    c-1.14,0-2.26,0.35-3.35,1.06c-1.1,0.7-2.18,1.7-3.25,2.98c0,6.13,0,9.19,0,15.32c-0.83,0-1.24,0-2.07,0c0-8.39,0-12.58,0-20.97    c0.83,0,1.24,0,2.07,0C680.77,584.85,680.77,585.47,680.77,586.71z"></path>			<path class="st2" d="M703.07,604.58c-0.83,0-1.24,0-2.07,0c0-9.88,0-19.76,0-29.63c0.83,0,1.24,0,2.07,0    C703.07,584.82,703.07,594.7,703.07,604.58z"></path>			<path class="st2" d="M712.07,604.58c-0.83,0-1.24,0-2.07,0c0-8.39,0-12.58,0-20.97c0.83,0,1.24,0,2.07,0    C712.07,591.99,712.07,596.19,712.07,604.58z M712.1,578.32c-0.83,0-1.24,0-2.07,0c0-1.35,0-2.03,0-3.38c0.83,0,1.24,0,2.07,0    C712.1,576.29,712.1,576.97,712.1,578.32z"></path>			<path class="st2" d="M720.77,586.71c0.67-0.83,1.33-1.49,1.98-1.98c0.65-0.49,1.28-0.86,1.89-1.11c0.61-0.25,1.19-0.41,1.75-0.47    s1.07-0.09,1.55-0.09c4.12,0,6.18,2.54,6.18,7.63c0,5.55,0,8.33,0,13.88c-0.83,0-1.24,0-2.07,0c0-5.48,0-8.22,0-13.69    c0-0.97-0.08-1.82-0.25-2.53c-0.16-0.71-0.43-1.3-0.8-1.76c-0.37-0.46-0.85-0.8-1.45-1.03c-0.6-0.23-1.32-0.34-2.19-0.34    c-1.14,0-2.26,0.35-3.35,1.06c-1.1,0.7-2.18,1.7-3.25,2.98c0,6.13,0,9.19,0,15.32c-0.83,0-1.24,0-2.07,0c0-8.39,0-12.58,0-20.97    c0.83,0,1.24,0,2.07,0C720.77,584.85,720.77,585.47,720.77,586.71z"></path>			<path class="st2" d="M748.84,605.12c-1.4,0-2.66-0.25-3.8-0.74c-1.14-0.5-2.12-1.22-2.94-2.17c-0.82-0.95-1.45-2.11-1.9-3.48    c-0.45-1.37-0.67-2.93-0.67-4.68c0-1.7,0.21-3.23,0.65-4.59c0.43-1.36,1.04-2.52,1.84-3.46c0.79-0.95,1.73-1.67,2.82-2.18    c1.09-0.5,2.29-0.76,3.62-0.76c1.36,0,2.6,0.25,3.7,0.76c1.1,0.51,2.04,1.23,2.82,2.18c0.78,0.95,1.37,2.1,1.79,3.46    c0.41,1.36,0.62,2.9,0.62,4.61c0,0.19,0,0.29,0,0.49c-6.31,0-9.47,0-15.78,0c0.1,1.43,0.35,2.66,0.75,3.71    c0.4,1.05,0.91,1.92,1.55,2.61c0.64,0.69,1.38,1.21,2.21,1.56c0.84,0.34,1.75,0.51,2.73,0.51c0.69,0,1.38-0.08,2.07-0.26    c0.69-0.17,1.31-0.43,1.88-0.77c0.56-0.34,1.03-0.77,1.41-1.27c0.38-0.5,0.6-1.08,0.67-1.73c0.82,0,1.23,0,2.04,0    c-0.19,0.99-0.53,1.87-1.01,2.64s-1.08,1.42-1.78,1.95c-0.71,0.53-1.51,0.93-2.41,1.2C750.81,604.98,749.86,605.12,748.84,605.12    z M755.28,592.4c-0.35-2.4-1.13-4.19-2.34-5.39c-1.22-1.19-2.71-1.79-4.49-1.79c-0.88,0-1.7,0.14-2.46,0.43    c-0.76,0.29-1.44,0.73-2.03,1.33c-0.6,0.6-1.1,1.34-1.5,2.25c-0.41,0.9-0.69,1.96-0.87,3.17    C747.07,592.4,749.81,592.4,755.28,592.4z"></path>		</g>	</g>	<g>		<g>			<path class="st2" d="M634.7,590.68c-0.99,1.64-2.26,2.9-3.82,3.8c-1.56,0.89-3.2,1.37-4.94,1.42c-1.73,0.05-3.36-0.38-4.88-1.28    l-8.22-4.88l2.07-3.44l8.22,4.88c1.39,0.83,2.91,1.01,4.54,0.54c1.64-0.47,2.91-1.45,3.81-2.95c0.9-1.49,1.17-3.06,0.81-4.72    c-0.35-1.66-1.23-2.9-2.62-3.73l-8.22-4.88l2.07-3.44l8.22,4.88c1.52,0.9,2.67,2.13,3.44,3.68s1.13,3.21,1.07,5    C636.2,587.35,635.68,589.06,634.7,590.68z"></path>		</g>		<g>			<path class="st2" d="M606.36,584.41c0.83-1.72,1.98-3.1,3.45-4.13c1.47-1.03,3.06-1.65,4.79-1.86c1.72-0.21,3.38,0.07,4.98,0.83    l8.63,4.12l-1.75,3.61l-8.63-4.12c-1.46-0.7-2.99-0.74-4.57-0.13c-1.59,0.61-2.76,1.71-3.52,3.29c-0.76,1.56-0.88,3.16-0.37,4.78    c0.51,1.62,1.49,2.78,2.96,3.47l8.63,4.12L619.2,602l-8.63-4.12c-1.6-0.76-2.85-1.88-3.76-3.35c-0.91-1.47-1.42-3.1-1.53-4.88    C605.17,587.87,605.53,586.12,606.36,584.41z"></path>		</g>	</g></g><g>	<g>		<linearGradient id="SVGID_4_" gradientUnits="userSpaceOnUse" x1="642.8733" y1="134.2099" x2="642.8733" y2="419.8665">			<stop offset="0" style="stop-color:#F5E439"></stop>			<stop offset="0.126" style="stop-color:#F4DB34"></stop>			<stop offset="0.3349" style="stop-color:#F0C125"></stop>			<stop offset="0.4333" style="stop-color:#EEB31D"></stop>			<stop offset="0.7981" style="stop-color:#EEAB1D"></stop>			<stop offset="0.9944" style="stop-color:#E49229"></stop>		</linearGradient>		<path class="st4" d="M576.48,359.66c-2.96,1.2-5.53,0.4-8.09-0.3c-0.15-0.04-0.26-0.22-0.41-0.25c-1.34-0.22-2.69-0.41-4.04-0.61   c0.19,1.44,0.38,2.88,0.56,4.23c-1.8-0.38-4.14-1.04-6.53-1.34c-4.03-0.51-5.59,1.28-4.29,4.86c0.65,1.8,1.64,3.5,2.69,5.7   c-2.41-0.35-4.73-0.69-7.27-1.06c0.34,4.86,1.4,9.37,5.38,13.27c-6.84-0.37-11.7-3.55-16.66-7.96   c-0.38,5.33-0.72,10.15-1.09,15.38c-2.63-0.82-4.97-1.53-7.31-2.27c-9.4-2.97-18.78-5.99-28.2-8.89c-1.84-0.57-2.33-1.6-2.66-3.29   c-1.12-5.79-2.35-11.57-3.8-17.29c-1.04-4.11-4.18-7.07-7.06-10.26c5-4.46,10.23-8.72,14.97-13.43   c6.97-6.93,13.7-14.09,20.3-21.35c1.82-2,2.93-4.62,4.11-7.07c0.27-0.57-0.23-1.99-0.82-2.36c-6.31-3.94-8.49-10.76-4.54-17.05   c3.88-6.19,8.23-12.17,12.85-17.88c7.57-9.35,15.39-18.51,23.38-27.53c3.13-3.54,7.05-6.44,10.5-9.73   c0.69-0.66,1.2-1.82,1.21-2.76c0.1-7.4,0.05-14.8,0.05-22.98c5.43,5.71,10.38,10.93,15.5,16.32c1.61-3.41,2.9-6.55,4.53-9.53   c4.88-8.9,11.74-16.29,19.86-22.58c10.87-8.41,23.14-14.43,36.31-18.9c12.61-4.28,25.59-7.03,38.81-8.83   c8.49-1.16,16.76-3.28,24.48-6.76c10.68-4.82,19.07-9.77,25.46-22.93c2.05,3.37,2.19,6.89,1.7,10.45   c-0.95,6.81-4.32,12.64-8.61,17.99c-8.96,11.16-20.34,19.78-32.58,27.35c-9.16,5.67-18.66,10.85-28.03,16.27   c0.22,0.03,0.7,0.24,1.12,0.15c5.71-1.17,11.41-2.38,17.11-3.58c7.78-1.63,15.5-3.57,23.34-4.83c11.01-1.77,22.09-3.19,33.18-4.46   c6.16-0.7,12.4-1.14,18.58-1.02c4.73,0.1,8.46-1.6,12.22-3.85c7.59-4.53,15.19-9.03,21.39-15.32c1.2-1.22,2.27-2.57,3.63-4.11   c0.73,4.53,0.3,8.7-0.94,12.81c-2.64,8.72-8.4,15.28-15.82,20.65c-9.71,7.03-20.83,11.2-32.51,14.05   c-6.48,1.58-13.24,2.21-19.58,4.17c-10.05,3.11-19.91,6.81-29.72,10.55c-9.05,3.46-17.79,7.58-25.59,13.26   c-2.9,2.11-5.73,4.38-6.96,7.87c-0.12,0.34-0.12,0.71-0.22,1.35c5.46-1.46,10.61-3.1,15.88-4.19c8.75-1.81,17.52-3.68,26.38-4.72   c6.17-0.73,12.53-0.32,18.78-0.04c3.66,0.17,7.08,1.59,10.34,4.06c-4.21,1.33-8.2,2.58-12.17,3.86   c-10.95,3.54-21.81,7.31-31.89,12.8c-2.77,1.51-5.33,3.53-7.57,5.71c-2.11,2.05-1.61,3.85,0.69,5.71   c11.08,8.96,22.13,17.96,33.52,27.21c-3.58,1.65-6.86,3.2-10.16,4.7c-7.86,3.54-15.72,7.07-23.62,10.54   c-0.63,0.28-1.66,0.29-2.27-0.01c-7.26-3.61-14.47-7.3-21.7-10.96c-0.34-0.17-0.72-0.27-1.49-0.55c0.39,3.09,0.85,5.88,1.09,8.69   c0.65,7.95,0.1,15.76-3.94,22.97c-3.63,6.47-9.6,9.48-17.05,9.92c-3.99,0.24-8.02-0.01-12.02,0.1c-0.83,0.02-2.09,0.46-2.4,1.06   c-2.44,4.69-5,9.36-6.91,14.25c-1.95,4.98-2.06,10.08,2.12,14.74c-7.22,1.31-14.08,2.21-21.05,0.3c-0.75-0.21-1.99,0.11-2.58,0.62   c-9.41,8.21-16.81,17.55-17.52,30.3c-0.16,2.9,0.45,5.83,0.72,8.85c-9.66,0-19.32,0-29.18,0c0.44-3.89,0.83-7.59,1.28-11.28   c0.44-3.56,1-7.11,1.38-10.67c0.16-1.51,0.68-2.05,2.31-1.77c1.9,0.32,3.85,0.4,6.04,0.6c-1.04-4.58-3.74-8.7-2.16-13.8   c2.9,1.74,5.58,3.35,8.68,5.22c-0.26-3.68-0.48-6.91-0.74-10.6c1.4,0.96,2.47,1.69,4.1,2.81c-0.23-2.71-0.42-4.89-0.6-7.06   c0.36-0.13,0.61-0.31,0.8-0.27c4.73,0.97,7.12-1.66,9.78-4.94c8.52-10.52,17.3-20.86,26.28-31.02c2.87-3.25,6.67-5.75,10.06-8.57   c0.34-0.28,0.77-0.45,1.01-0.86c-8.23-0.6-16.14,0.21-23.94,2.05c-6.36,1.5-12.34,3.8-17.56,7.72c-4.91,3.69-7.2,8.85-9.07,14.26   c-0.17,0.48,0.28,1.32,0.69,1.78C572.52,355.51,574.44,357.49,576.48,359.66z M611.93,264.88c-0.26-0.11-0.52-0.23-0.78-0.34   c-16.81,15.73-37.97,24.87-58.4,35.31c0.71,0.39,1.37,0.58,2.05,0.63c9.77,0.79,19.53,1.6,29.3,2.29   c0.92,0.07,2.11-0.38,2.83-0.98c8.93-7.41,16.89-15.6,21.49-26.22C609.91,272.13,610.78,268.45,611.93,264.88z M533.57,356.26   c-4.02,1.25-7.42,2.5-10.93,3.34c-5.16,1.22-5.14,1.09-5,6.2c0.04,1.57,0.51,2.07,2.2,1.73   C526.41,366.16,529.93,361.52,533.57,356.26z"></path>		<linearGradient id="SVGID_5_" gradientUnits="userSpaceOnUse" x1="715.8892" y1="296.995" x2="715.8892" y2="507.1357">			<stop offset="0" style="stop-color:#F5E439"></stop>			<stop offset="0.126" style="stop-color:#F4DB34"></stop>			<stop offset="0.3349" style="stop-color:#F0C125"></stop>			<stop offset="0.4333" style="stop-color:#EEB31D"></stop>			<stop offset="0.7981" style="stop-color:#EEAB1D"></stop>			<stop offset="0.9944" style="stop-color:#E49229"></stop>		</linearGradient>		<path class="st5" d="M732.31,297c2.27,4.45,4.59,8.87,6.81,13.34c5.68,11.42,10.66,23.13,14.17,35.32   c2.87,9.96,5.32,20.06,7.27,30.22c1.85,9.65,2.44,19.43,1.95,29.32c-0.38,7.8-1.08,15.49-2.77,23.11   c-2.78,12.51-7.81,24.13-15.24,34.77c-5.97,8.54-12.69,16.59-21.6,22.41c-7.02,4.59-14.55,8.58-22.22,12.12   c-6.82,3.15-14.07,5.49-21.25,7.82c-3.18,1.03-6.67,1.17-10.02,1.72c-0.1-0.2-0.19-0.4-0.29-0.6c2.27-2.02,4.51-4.07,6.81-6.06   c17.77-15.44,33.46-32.59,46.74-51.72c2.95-4.24,6.24-8.35,8.54-12.91c5.21-10.31,10.59-20.55,13.91-31.68   c3.41-11.41,5.75-22.96,5.07-34.79c-0.51-8.92-1.87-17.84-3.49-26.65c-2.49-13.57-7.36-26.52-12.39-39.4   c-0.8-2.05-1.66-4.08-2.5-6.12C731.97,297.14,732.14,297.07,732.31,297z"></path>		<linearGradient id="SVGID_6_" gradientUnits="userSpaceOnUse" x1="755.9471" y1="258.8929" x2="755.9471" y2="426.5629">			<stop offset="0" style="stop-color:#F5E439"></stop>			<stop offset="0.126" style="stop-color:#F4DB34"></stop>			<stop offset="0.3349" style="stop-color:#F0C125"></stop>			<stop offset="0.4333" style="stop-color:#EEB31D"></stop>			<stop offset="0.7981" style="stop-color:#EEAB1D"></stop>			<stop offset="0.9944" style="stop-color:#E49229"></stop>		</linearGradient>		<path class="st6" d="M724.35,267.59c6.4-3.74,13.11-6.72,20.4-8.4c2.82-0.65,5.39-0.41,7.27,2.22c3.37,4.71,6.9,9.32,10.34,13.99   c6.88,9.35,11.64,19.72,15.65,30.41c4.53,12.07,7.24,24.52,8.67,37.26c1.45,12.96,0.95,25.88-0.62,38.77   c-0.46,3.78-1.72,7.47-2.46,11.23c-0.64,3.24-0.76,6.59-1.63,9.76c-2.17,7.95-4.62,15.82-6.96,23.73   c-0.23-0.04-0.45-0.08-0.68-0.11c0.38-3.3,0.83-6.59,1.14-9.89c0.53-5.73,1.51-11.48,1.33-17.19c-0.31-10.15-1.08-20.3-2.17-30.39   c-0.74-6.79-2.15-13.55-3.66-20.24c-2.94-13.01-7.5-25.53-13.66-37.48C748.97,295.11,740.14,282.82,724.35,267.59z"></path>		<linearGradient id="SVGID_7_" gradientUnits="userSpaceOnUse" x1="805.5093" y1="227.5112" x2="805.5093" y2="270.7527">			<stop offset="0" style="stop-color:#F5E439"></stop>			<stop offset="0.126" style="stop-color:#F4DB34"></stop>			<stop offset="0.3349" style="stop-color:#F0C125"></stop>			<stop offset="0.4333" style="stop-color:#EEB31D"></stop>			<stop offset="0.7981" style="stop-color:#EEAB1D"></stop>			<stop offset="0.9944" style="stop-color:#E49229"></stop>		</linearGradient>		<path class="st7" d="M862.84,249.79c-29.98-0.62-57.09,9.02-83.9,20.96c-10.12-13.53-20.31-27.15-30.77-41.13   c20.17-3.39,39.88-2.44,59.5,1.01C827.13,234.05,845.58,240.26,862.84,249.79z"></path>		<linearGradient id="SVGID_8_" gradientUnits="userSpaceOnUse" x1="672.2968" y1="415.2271" x2="672.2968" y2="467.3566">			<stop offset="0" style="stop-color:#F5E439"></stop>			<stop offset="0.126" style="stop-color:#F4DB34"></stop>			<stop offset="0.3349" style="stop-color:#F0C125"></stop>			<stop offset="0.4333" style="stop-color:#EEB31D"></stop>			<stop offset="0.7981" style="stop-color:#EEAB1D"></stop>			<stop offset="0.9944" style="stop-color:#E49229"></stop>		</linearGradient>		<path class="st8" d="M715.71,429.47c-5.59,7.62-10.72,15.1-16.4,22.18c-3.85,4.8-8.44,9.07-12.78,13.51   c-2.76,2.82-5.81,2.54-9.5,1.31c-10.57-3.51-21.25-6.72-31.99-9.73c-5.21-1.46-10.64-2.2-16.17-3.3c2.3-2.29,4.7-4.72,7.15-7.11   c10.18-9.94,20.4-19.85,30.52-29.84c1.35-1.33,2.46-1.52,4.26-0.96c14.25,4.44,28.55,8.76,42.82,13.13   C714.17,428.81,714.67,429.06,715.71,429.47z"></path>		<linearGradient id="SVGID_9_" gradientUnits="userSpaceOnUse" x1="834.7817" y1="326.1337" x2="834.7817" y2="399.912">			<stop offset="0" style="stop-color:#F5E439"></stop>			<stop offset="0.126" style="stop-color:#F4DB34"></stop>			<stop offset="0.3349" style="stop-color:#F0C125"></stop>			<stop offset="0.4333" style="stop-color:#EEB31D"></stop>			<stop offset="0.7981" style="stop-color:#EEAB1D"></stop>			<stop offset="0.9944" style="stop-color:#E49229"></stop>		</linearGradient>		<path class="st9" d="M868,399.91c-4.38-2.4-8.53-4.76-12.75-6.98c-12.13-6.4-24.41-12.54-37.9-15.96   c-4.09-1.03-8.24-2.48-12.63-1.34c-1,0.26-2.02,0.47-3.31,0.76c0-16.62,0-33.23,0-50.26c2.46,1.2,4.86,2.24,7.14,3.48   c15.29,8.36,29.1,18.46,40.41,31.48c9.69,11.14,16.58,23.58,19.2,37.98C868.18,399.21,868.11,399.37,868,399.91z"></path>		<linearGradient id="SVGID_10_" gradientUnits="userSpaceOnUse" x1="700.6977" y1="367.9977" x2="700.6977" y2="419.8111">			<stop offset="0" style="stop-color:#F5E439"></stop>			<stop offset="0.126" style="stop-color:#F4DB34"></stop>			<stop offset="0.3349" style="stop-color:#F0C125"></stop>			<stop offset="0.4333" style="stop-color:#EEB31D"></stop>			<stop offset="0.7981" style="stop-color:#EEAB1D"></stop>			<stop offset="0.9944" style="stop-color:#E49229"></stop>		</linearGradient>		<path class="st10" d="M668.63,406.56c5.33-12.34,10.67-24.68,15.96-37.04c0.57-1.33,1.23-1.8,2.73-1.37   c9.67,2.76,19.38,5.38,29.01,8.23c4.34,1.28,8.56,2.93,12.78,4.54c3.63,1.39,3.93,1.96,3.5,5.53c-1.12,9.2-2.26,18.4-5.36,27.24   c-0.73,2.09-1.85,4.07-2.8,6.11C705.79,414.63,687.94,407.96,668.63,406.56z"></path>		<linearGradient id="SVGID_11_" gradientUnits="userSpaceOnUse" x1="710.4324" y1="319.3865" x2="710.4324" y2="371.3899">			<stop offset="0" style="stop-color:#F5E439"></stop>			<stop offset="0.126" style="stop-color:#F4DB34"></stop>			<stop offset="0.3349" style="stop-color:#F0C125"></stop>			<stop offset="0.4333" style="stop-color:#EEB31D"></stop>			<stop offset="0.7981" style="stop-color:#EEAB1D"></stop>			<stop offset="0.9944" style="stop-color:#E49229"></stop>		</linearGradient>		<path class="st11" d="M736.67,371.39c-6.71-2.76-12.99-5.49-19.39-7.93c-8.08-3.08-16.25-5.97-25.06-6.48   c-2.08-0.12-4.2,0.25-6.81,0.44c-0.41-3.02-0.91-6.36-1.29-9.71c-0.5-4.51-0.88-9.02-1.35-13.53c-0.17-1.63-1.15-3.63-0.49-4.78   c0.72-1.25,2.9-1.79,4.52-2.48c10.49-4.46,21.22-8.01,32.96-7.47c0.65,0.03,1.31,0.04,1.96,0.09c4.44,0.32,7.32,1.86,8.84,6.51   c3.32,10.09,6.99,20.08,8.13,30.64c0.42,3.87-0.3,7.87-0.68,11.8C737.91,369.48,737.13,370.42,736.67,371.39z"></path>		<linearGradient id="SVGID_12_" gradientUnits="userSpaceOnUse" x1="619.655" y1="460.9236" x2="619.655" y2="490.9599">			<stop offset="0" style="stop-color:#F5E439"></stop>			<stop offset="0.126" style="stop-color:#F4DB34"></stop>			<stop offset="0.3349" style="stop-color:#F0C125"></stop>			<stop offset="0.4333" style="stop-color:#EEB31D"></stop>			<stop offset="0.7981" style="stop-color:#EEAB1D"></stop>			<stop offset="0.9944" style="stop-color:#E49229"></stop>		</linearGradient>		<path class="st12" d="M668.19,474.01c-2.74,1.45-4.92,2.71-7.18,3.79c-10.35,4.92-21.13,8.76-32.44,11.05   c-12.5,2.53-25.12,3.05-37.64,0.12c-6.93-1.62-13.55-4.16-19.81-8.19c4.17-1.93,8.19-3.84,12.25-5.66   c10.14-4.55,20.29-9.09,30.48-13.55c1.16-0.5,2.71-0.83,3.89-0.53C634.34,465.23,650.9,469.54,668.19,474.01z"></path>		<linearGradient id="SVGID_13_" gradientUnits="userSpaceOnUse" x1="834.9238" y1="280.1549" x2="834.9238" y2="325.3973">			<stop offset="0" style="stop-color:#F5E439"></stop>			<stop offset="0.126" style="stop-color:#F4DB34"></stop>			<stop offset="0.3349" style="stop-color:#F0C125"></stop>			<stop offset="0.4333" style="stop-color:#EEB31D"></stop>			<stop offset="0.7981" style="stop-color:#EEAB1D"></stop>			<stop offset="0.9944" style="stop-color:#E49229"></stop>		</linearGradient>		<path class="st13" d="M798.07,314.71c-3.5-11.5-6.93-22.8-10.51-34.55c6.52,1.57,12.7,2.85,18.74,4.58   c6.84,1.96,13.64,4.13,20.31,6.55c19.72,7.14,38.29,16.17,53.24,30.84c0.93,0.92,1.8,1.9,2.43,3.28   c-3.06-0.89-6.09-1.88-9.17-2.67c-10.62-2.72-21.22-5.52-31.9-8.01c-9.46-2.21-19.09-3.61-28.86-3.55   C807.44,311.2,802.56,311.68,798.07,314.71z"></path>		<linearGradient id="SVGID_14_" gradientUnits="userSpaceOnUse" x1="816.6969" y1="384.7564" x2="816.6969" y2="440.4634">			<stop offset="0" style="stop-color:#F5E439"></stop>			<stop offset="0.126" style="stop-color:#F4DB34"></stop>			<stop offset="0.3349" style="stop-color:#F0C125"></stop>			<stop offset="0.4333" style="stop-color:#EEB31D"></stop>			<stop offset="0.7981" style="stop-color:#EEAB1D"></stop>			<stop offset="0.9944" style="stop-color:#E49229"></stop>		</linearGradient>		<path class="st14" d="M841.87,440.46c-2.47-2.2-4.91-4.42-7.39-6.6c-7.52-6.58-15.64-12.24-25.71-14.75   c-5.64-1.41-11.27-1.14-17.23,0.58c3.26-11.88,6.41-23.4,9.57-34.94C818.48,393.29,841.68,415.19,841.87,440.46z"></path>		<linearGradient id="SVGID_15_" gradientUnits="userSpaceOnUse" x1="789.1996" y1="429.5837" x2="789.1996" y2="490.9185">			<stop offset="0" style="stop-color:#F5E439"></stop>			<stop offset="0.126" style="stop-color:#F4DB34"></stop>			<stop offset="0.3349" style="stop-color:#F0C125"></stop>			<stop offset="0.4333" style="stop-color:#EEB31D"></stop>			<stop offset="0.7981" style="stop-color:#EEAB1D"></stop>			<stop offset="0.9944" style="stop-color:#E49229"></stop>		</linearGradient>		<path class="st15" d="M791.78,429.58c6.83,20.05,13.45,39.68,6.55,61.33c-1.78-3.57-3.16-6.64-4.8-9.59   c-3.82-6.9-7.69-13.8-13.95-19.07c-2.95-2.48-2.99-2.4-1.31-5.89c4.16-8.64,8.3-17.29,12.47-25.93   C790.86,430.2,791.19,430.06,791.78,429.58z"></path>	</g></g></svg>